<svg width="20" height="18" viewBox="0 0 20 18" fill="none" xmlns="http://www.w3.org/2000/svg"><path d="M10.002 3.655l-.391.312a.5.5 0 0 0 .781 0l-.39-.312zM5.742 1v.5V1zm-3.86 7.999l-.44.236.44-.236zM10.002 17l-.325.38a.5.5 0 0 0 .65 0l-.325-.38zm4.26-16V.5 1zm3.86 7.999l-.44-.237.44.237zm-7.73-5.656C9.587 2.335 8.412.497 5.741.5v1c2.111-.003 2.994 1.37 3.87 2.467l.781-.624zM5.741.5c-1.916.002-3.638.997-4.553 2.608C.266 4.73.194 6.913 1.44 9.235l.881-.473c-1.109-2.066-.992-3.88-.265-5.16.733-1.29 2.12-2.1 3.685-2.102L5.74.5zm-4.3 8.735c.665 1.239 2.177 2.795 3.755 4.252 1.594 1.472 3.327 2.906 4.48 3.893l.65-.76c-1.17-1.001-2.877-2.413-4.452-3.868-1.591-1.47-2.978-2.92-3.552-3.99l-.88.473zm8.951-5.268c.877-1.097 1.76-2.47 3.87-2.467v-1c-2.67-.003-3.846 1.835-4.651 2.843l.781.624zm3.87-2.467c1.565.002 2.95.812 3.684 2.102.727 1.28.844 3.094-.265 5.16l.881.473c1.247-2.322 1.175-4.505.253-6.127C17.9 1.498 16.178.502 14.263.5l-.002 1zm3.42 7.262c-.575 1.07-1.961 2.52-3.553 3.99-1.575 1.455-3.282 2.867-4.452 3.868l.65.76c1.153-.987 2.887-2.421 4.48-3.893 1.578-1.457 3.09-3.013 3.755-4.252l-.88-.473z" fill="#BBA38C"/></svg>